<?xml version="1.0" standalone="no"?>
<!DOCTYPE svg PUBLIC "-//W3C//DTD SVG 20010904//EN"
 "http://www.w3.org/TR/2001/REC-SVG-20010904/DTD/svg10.dtd">
<svg version="1.0" xmlns="http://www.w3.org/2000/svg"
 width="4000.000000pt" height="4000.000000pt" viewBox="0 0 4000.000000 4000.000000"
 preserveAspectRatio="xMidYMid meet">

<g transform="translate(0.000000,4000.000000) scale(0.100000,-0.100000)"
fill="#000000" stroke="none">
<path d="M19575 31183 c-1690 -20 -3536 -251 -5502 -689 -1542 -343 -2991
-840 -4138 -1419 -382 -193 -782 -424 -809 -468 -28 -45 -87 -339 -120 -602
-65 -507 -73 -1259 -21 -1965 198 -2676 1188 -6119 2873 -9990 495 -1138 776
-1715 1165 -2395 148 -259 355 -605 374 -625 12 -13 31 3 145 117 l131 131
-20 28 c-28 41 -203 330 -310 514 -349 601 -606 1115 -1003 2005 -1396 3137
-2307 5913 -2729 8320 -286 1627 -328 3110 -114 4019 l25 108 97 63 c343 222
962 535 1516 767 1077 450 2171 782 3529 1069 3466 732 6347 776 9786 148 706
-129 1601 -328 1985 -441 l110 -32 656 -6 657 -5 -159 -140 c-87 -77 -155
-142 -151 -146 4 -3 96 -36 204 -72 l198 -67 237 141 c131 78 246 147 255 154
14 9 -9 21 -145 70 -957 344 -1981 622 -3147 855 -1453 290 -2741 456 -4075
525 -282 15 -1129 37 -1250 33 -33 -2 -145 -4 -250 -5z"/>
<path d="M30589 30533 c-178 -175 -788 -775 -1354 -1333 -1060 -1045 -2652
-2612 -3364 -3313 l-403 -397 -4097 -3 -4096 -3 -142 -27 c-468 -87 -804 -262
-1100 -570 -346 -361 -528 -860 -492 -1349 48 -641 437 -1149 1059 -1381 109
-41 251 -78 413 -109 111 -21 127 -21 2187 -28 2708 -10 2417 -6 2397 -28 -24
-26 -21 -32 15 -32 32 0 27 -5 -122 -155 -129 -129 -157 -153 -166 -140 -6 8
-16 15 -21 15 -5 0 -376 -372 -824 -827 -447 -456 -1477 -1503 -2289 -2328
-2833 -2881 -2790 -2837 -2790 -2859 0 -8 5 -18 11 -22 6 -3 -36 -54 -103
-123 -668 -684 -652 -669 -558 -526 45 67 47 72 25 55 -19 -15 -19 -15 0 15
10 17 728 1144 1595 2505 867 1361 1656 2600 1754 2753 98 154 176 280 174
282 -2 1 -62 -59 -133 -134 -72 -75 -613 -642 -1204 -1261 -591 -619 -1093
-1145 -1117 -1170 l-43 -44 -123 23 c-169 33 -548 129 -753 191 -1336 407
-2441 1166 -3226 2216 -481 644 -825 1388 -1025 2214 -43 179 -43 143 1 -70
197 -957 633 -1870 1236 -2590 34 -41 52 -66 39 -55 -12 11 -73 79 -133 150
-1287 1515 -1736 3624 -1181 5547 100 346 210 628 380 968 205 409 412 725
710 1085 136 164 500 529 663 665 1090 905 2442 1388 4086 1459 121 6 2063 15
4315 21 2252 7 4167 15 4255 18 l160 7 -310 63 c-1340 270 -2484 425 -3670
496 -854 52 -1801 52 -2645 1 -1277 -78 -2695 -287 -4120 -606 -1719 -386
-3326 -978 -4410 -1625 -242 -144 -232 -135 -259 -245 -131 -543 -164 -1394
-91 -2324 203 -2568 1178 -5877 2816 -9550 80 -181 161 -364 179 -405 228
-530 712 -1455 1020 -1950 39 -63 87 -141 106 -172 19 -32 38 -58 42 -58 5 0
222 210 483 468 l475 467 4097 5 4097 5 121 22 c452 80 812 260 1100 551 140
141 275 334 351 501 352 771 138 1618 -522 2062 -291 197 -640 303 -1080 329
-190 11 -3523 14 -3838 3 l-197 -6 0 -49 0 -48 -147 0 -147 0 47 48 c26 26 47
51 47 54 0 4 -16 8 -35 10 l-36 3 433 440 c237 242 686 699 997 1015 1418
1441 1755 1784 2321 2360 332 338 729 741 880 895 152 154 685 696 1185 1205
1048 1068 1040 1060 1029 1040 -4 -8 -31 -52 -60 -96 -85 -134 -82 -134 40 -9
65 66 114 113 110 105 -15 -31 -860 -1348 -875 -1365 -6 -5 6 24 25 66 37 81
61 163 44 153 -17 -10 -99 -139 -1520 -2369 -498 -781 -993 -1558 -1101 -1728
-185 -289 -225 -357 -176 -297 12 14 114 122 229 240 114 118 665 694 1225
1280 l1018 1065 41 -1 c60 -3 422 -85 647 -148 744 -208 1363 -489 1979 -899
597 -397 1078 -838 1482 -1359 51 -65 95 -118 99 -118 3 0 56 145 117 323 822
2410 1274 4488 1363 6266 15 309 7 1025 -15 1261 -32 340 -103 748 -140 804
-30 47 -494 309 -905 512 l-274 136 126 125 125 126 49 -17 c77 -29 574 -277
738 -369 83 -46 214 -123 292 -171 164 -100 150 -78 197 -309 88 -427 122
-892 113 -1547 -6 -408 -11 -520 -42 -890 -147 -1764 -655 -3921 -1474 -6256
l-92 -261 69 -109 c38 -60 88 -144 112 -186 24 -43 47 -78 50 -78 13 0 342
943 496 1420 773 2389 1197 4437 1284 6199 13 264 13 914 0 1134 -23 388 -71
750 -131 992 -37 147 -29 137 -152 213 -195 122 -423 248 -704 390 -150 75
-273 140 -273 143 0 4 101 105 225 224 l226 218 -62 34 c-35 18 -67 37 -71 41
-5 5 147 161 338 348 466 457 614 622 634 709 8 34 -2 55 -26 55 -6 0 -157
-143 -335 -317z m-18579 -10668 c19 -19 32 -35 29 -35 -3 0 -20 16 -39 35 -19
19 -32 35 -29 35 3 0 20 -16 39 -35z"/>
<path d="M27325 29408 c-177 -155 -1265 -1130 -1265 -1134 0 -2 138 80 308
183 169 102 509 308 755 456 303 183 443 273 434 278 -8 5 -54 23 -103 40 -49
18 -91 33 -93 35 -2 2 11 24 28 50 17 26 33 62 37 80 7 38 -2 74 -19 74 -7 -1
-43 -28 -82 -62z"/>
<path d="M10621 22854 c0 -11 3 -14 6 -6 3 7 2 16 -1 19 -3 4 -6 -2 -5 -13z"/>
<path d="M10632 22800 c0 -14 2 -19 5 -12 2 6 2 18 0 25 -3 6 -5 1 -5 -13z"/>
<path d="M29692 14950 c0 -14 2 -19 5 -12 2 6 2 18 0 25 -3 6 -5 1 -5 -13z"/>
<path d="M29682 14885 c0 -16 2 -22 5 -12 2 9 2 23 0 30 -3 6 -5 -1 -5 -18z"/>
<path d="M29660 14778 c-20 -115 -96 -419 -146 -583 -344 -1127 -1034 -2113
-1964 -2806 -1005 -749 -2259 -1166 -3720 -1238 -122 -6 -2141 -17 -4980 -26
-5804 -18 -5997 -19 -6006 -27 -13 -13 -16 -95 -5 -117 7 -11 31 -31 54 -43
l42 -23 1056 -3 1057 -2 73 -85 73 -85 320 -1 321 0 190 -216 c963 -1092 1995
-2114 2905 -2873 451 -375 867 -669 1017 -717 l52 -16 85 41 c393 188 1275
918 2202 1823 576 562 1086 1101 1673 1768 117 133 218 244 225 246 6 3 79 11
161 20 146 16 357 45 481 66 61 11 62 11 139 101 42 49 75 91 73 94 -3 2 -42
-3 -89 -11 -144 -26 -498 -75 -532 -74 -17 0 43 11 135 24 1717 240 3100 996
4035 2207 459 594 805 1318 988 2073 57 234 117 555 103 555 -3 0 -11 -33 -18
-72z m-5297 -4795 c-13 -2 -33 -2 -45 0 -13 2 -3 4 22 4 25 0 35 -2 23 -4z
m-110 -10 c-13 -2 -33 -2 -45 0 -13 2 -3 4 22 4 25 0 35 -2 23 -4z m-110 -10
c-13 -2 -35 -2 -50 0 -16 2 -5 4 22 4 28 0 40 -2 28 -4z m-140 -10 c-13 -2
-35 -2 -50 0 -16 2 -5 4 22 4 28 0 40 -2 28 -4z m-199 -10 c-25 -3 -49 -24
-120 -106 -563 -648 -1473 -1573 -2144 -2179 -629 -567 -1169 -987 -1448
-1125 l-92 -47 -54 17 c-212 67 -866 567 -1556 1191 -672 606 -1697 1647
-2133 2166 l-38 45 38 7 c43 8 365 9 345 1 -8 -3 7 -25 40 -62 741 -812 1712
-1748 2378 -2292 275 -225 486 -386 655 -499 103 -69 278 -160 309 -160 62 0
303 144 541 323 431 325 828 668 1400 1207 300 283 926 917 1231 1245 l240
260 160 5 c198 7 288 8 248 3z m-1136 -10 c-49 -2 -127 -2 -175 0 -49 1 -9 3
87 3 96 0 136 -2 88 -3z m-3070 -10 c-49 -2 -127 -2 -175 0 -49 1 -9 3 87 3
96 0 136 -2 88 -3z"/>
<path d="M14029 11509 c-753 -461 -2058 -1242 -3429 -2054 -1096 -648 -1265
-752 -1278 -780 -20 -42 -15 -74 11 -80 67 -17 212 48 587 263 182 105 1561
921 2290 1357 701 419 916 540 1079 610 57 24 106 54 150 93 55 47 775 686
806 713 24 23 -17 0 -216 -122z"/>
</g>
</svg>
